<svg id="Layer_1" data-name="Layer 1" xmlns="http://www.w3.org/2000/svg" width="84.45mm" height="38.5mm" viewBox="0 0 239.38 109.13"><defs><style>.cls-1{fill:#fff;}</style></defs><title> </title><path class="cls-1" d="M44.29,51.52a7.88,7.88,0,0,1,15.29-.13,19.66,19.66,0,0,0,9.48-2.78,17.76,17.76,0,0,0-34.24.08,19.69,19.69,0,0,0,9.47,2.84"/><path class="cls-1" d="M59.71,54.8a7.89,7.89,0,0,1-15.49.14,23.29,23.29,0,0,0-9.55,2.55,17.76,17.76,0,0,0,34.6-.16,23.3,23.3,0,0,0-9.56-2.54"/><path class="cls-1" d="M97.72,49.22a6.82,6.82,0,0,0-4.23-1.3c-1.7,0-2.57.61-2.57,1.48s.9,1.52,2.64,1.55c3.51.11,7.73.83,7.77,5.75,0,2.89-2.13,6-7.81,6a12.12,12.12,0,0,1-8.38-3L87.39,56a9.55,9.55,0,0,0,6.22,2.24c1.52,0,2.71-.58,2.67-1.52s-.61-1.52-3-1.59c-3.32-.15-7.48-1.52-7.48-5.71s3.83-5.75,7.7-5.75A9.87,9.87,0,0,1,100.29,46Z"/><path class="cls-1" d="M108.63,53.09a4.47,4.47,0,0,0,4.7,4.7,4.72,4.72,0,1,0,0-9.43,4.5,4.5,0,0,0-4.7,4.73m9.61-8.93h4.88V62h-4.7l-.29-2.24c-1.19,1.88-3.76,2.6-5.49,2.64-5.35,0-9.21-3.43-9.21-9.32s4.08-9.4,9.36-9.32c2.24,0,4.34.87,5.28,2.46Z"/><path class="cls-1" d="M140.39,62V52.58c0-2.75-1.19-4.16-3.69-4.16a4.14,4.14,0,0,0-4,4.37V62h-5.13V44.17h4.7l.18,2.28a6.73,6.73,0,0,1,5.78-2.71c4,0,7.44,1.88,7.44,8.82V62Z"/><path class="cls-1" d="M177.5,53.13a4.5,4.5,0,1,0-9,0A4.35,4.35,0,0,0,173,57.79c3.18,0,4.52-2.31,4.52-4.66m-14.27,0c0-5.38,3.83-9.36,9.76-9.36s9.79,4,9.79,9.36-3.72,9.29-9.79,9.29-9.76-3.9-9.76-9.29"/><path class="cls-1" d="M156.76,43.44a2.45,2.45,0,0,1,2.64-2.75,5.07,5.07,0,0,1,2.32.58V36.75a8.28,8.28,0,0,0-2.94-.5c-3.47,0-7.23,2-7.23,7.19v1h-3.14v4.37h3.14V62h5.2V48.86h4.95V44.49h-4.95Z"/><path class="cls-1" d="M194.93,48.43a4.41,4.41,0,0,1,4.52,4.7c0,2.35-1.34,4.66-4.52,4.66a4.35,4.35,0,0,1-4.48-4.66,4.4,4.4,0,0,1,4.48-4.7m6.7,11.79a9,9,0,0,0,3.1-7.09c0-5.38-3.83-9.36-9.79-9.36s-9.76,4-9.76,9.36a8.73,8.73,0,0,0,6,8.71,12,12,0,0,0,3.93.62c3.22,0,4.34,1.34,4.34,3.07,0,2.2-2.1,3.29-4.41,3.29s-4.3-.87-4.48-3.61h-4.84c-.07,5.13,3.14,8.2,9.32,8.2,4.91,0,9.68-2.57,9.68-7.88a5.62,5.62,0,0,0-3.12-5.31"/></svg>